<svg height="15.75" viewBox="0 0 27 15.75" width="27" xmlns="http://www.w3.org/2000/svg"><g transform="translate(-4.5 -10.125)"><path d="m30.375 12.375h-24.75a1.128 1.128 0 0 1 -1.125-1.125 1.128 1.128 0 0 1 1.125-1.125h24.75a1.128 1.128 0 0 1 1.125 1.125 1.128 1.128 0 0 1 -1.125 1.125z"/><path d="m30.375 19.125h-24.75a1.128 1.128 0 0 1 -1.125-1.125 1.128 1.128 0 0 1 1.125-1.125h24.75a1.128 1.128 0 0 1 1.125 1.125 1.128 1.128 0 0 1 -1.125 1.125z"/><path d="m30.375 25.875h-24.75a1.128 1.128 0 0 1 -1.125-1.125 1.128 1.128 0 0 1 1.125-1.125h24.75a1.128 1.128 0 0 1 1.125 1.125 1.128 1.128 0 0 1 -1.125 1.125z"/></g></svg>