<svg height="24" viewBox="0 0 24 24" width="24" xmlns="http://www.w3.org/2000/svg"><path d="m17.463 10.359a6.462 6.462 0 1 0 6.462 6.462 6.469 6.469 0 0 0 -6.462-6.462zm0 11.077a4.615 4.615 0 1 1 4.615-4.615 4.615 4.615 0 0 1 -4.615 4.614zm0-12.923a.923.923 0 0 0 .923-.923v-1.847a.923.923 0 1 0 -1.846 0v1.846a.923.923 0 0 0 .923.923zm0 16.615a.923.923 0 0 0 -.923.923v1.849a.923.923 0 1 0 1.846 0v-1.849a.923.923 0 0 0 -.923-.923zm7.179-14.183 1.305-1.305a.923.923 0 0 0 -1.305-1.305l-1.305 1.305a.923.923 0 0 0 1.305 1.305zm-14.358 11.755-1.306 1.3a.923.923 0 0 0 1.305 1.305l1.306-1.305a.923.923 0 0 0 -1.305-1.3zm-1.129-5.88a.923.923 0 0 0 -.923-.923h-1.846a.923.923 0 1 0 0 1.846h1.846a.923.923 0 0 0 .923-.923zm19.385-.92h-1.846a.923.923 0 1 0 0 1.846h1.846a.923.923 0 0 0 0-1.846zm-18.258-4.955a.923.923 0 0 0 1.306-1.305l-1.306-1.305a.923.923 0 0 0 -1.305 1.305zm14.361 11.749a.923.923 0 0 0 -1.305 1.306l1.305 1.3a.923.923 0 1 0 1.305-1.3z" transform="translate(-5.463 -4.82)"/></svg>