<svg xmlns="http://www.w3.org/2000/svg" width="25" height="25" viewBox="0 0 25 25">
  <path id="icon-spotify" d="M12.5.563A12.5,12.5,0,1,0,25,13.063,12.5,12.5,0,0,0,12.5.563Zm5.076,18.392a.962.962,0,0,1-.539-.181c-3.145-1.9-6.8-1.976-10.418-1.235a3.255,3.255,0,0,1-.6.131.785.785,0,0,1-.8-.8.8.8,0,0,1,.685-.847c4.128-.912,8.347-.832,11.946,1.321a.852.852,0,0,1,.489.832.762.762,0,0,1-.766.776Zm1.356-3.306a1.245,1.245,0,0,1-.62-.212A16.334,16.334,0,0,0,6.285,13.955a2.076,2.076,0,0,1-.6.131.979.979,0,0,1-.978-.978.992.992,0,0,1,.781-1.043,16.953,16.953,0,0,1,4.929-.685,17.644,17.644,0,0,1,8.921,2.293,1.051,1.051,0,0,1,.57.993.977.977,0,0,1-.978.983Zm1.563-3.841a1.159,1.159,0,0,1-.65-.2c-3.589-2.142-10.005-2.656-14.158-1.5a2.394,2.394,0,0,1-.65.131,1.163,1.163,0,0,1-1.174-1.19,1.191,1.191,0,0,1,.877-1.2,21.125,21.125,0,0,1,5.922-.766A21.288,21.288,0,0,1,21.013,9.494a1.183,1.183,0,0,1,.65,1.139,1.168,1.168,0,0,1-1.169,1.174Z" transform="translate(0 -0.563)"/>
</svg>
