<svg height="74.852" viewBox="0 0 240.469 74.852" width="240.469" xmlns="http://www.w3.org/2000/svg"><path d="m42.684 36.406a23.608 23.608 0 0 1 5.273 1.2 12.371 12.371 0 0 1 3.938 2.25 41.319 41.319 0 0 1 2.145 3.8 19.667 19.667 0 0 1 1.546 4.244 18.306 18.306 0 0 1 .492 4.535 12.829 12.829 0 0 1 -1.02 4.711 16.221 16.221 0 0 1 -4.958 4.116 31.894 31.894 0 0 1 -6.293 2.566q-3.375.984-7 1.688t-7.066 1.406q.07 1.617.035 3.41a23.225 23.225 0 0 1 -.352 3.586 19.583 19.583 0 0 1 -.949 3.48 12.358 12.358 0 0 1 -1.687 3.094 10.13 10.13 0 0 0 -2.461.316q-1.266.316-2.25.527-.492-.281-.879-.527a2.507 2.507 0 0 0 -1.09-.316 1.884 1.884 0 0 0 -.352-1.441q-.492-.738-.984-1.512a5.079 5.079 0 0 1 -.668-1.477q-.176-.7.668-1.336a1.713 1.713 0 0 1 -.492-1.266 9.458 9.458 0 0 0 .879-2.32q.387-1.477.633-2.918a9.27 9.27 0 0 0 .105-2.637 2.145 2.145 0 0 0 -1.397-1.757.283.283 0 0 1 .281-.141 1.327 1.327 0 0 0 .422-.07 1.713 1.713 0 0 1 -.668-1.2 2.819 2.819 0 0 0 -.535-1.331 4.986 4.986 0 0 0 .211-.633q.07-.281.492-.211a6.279 6.279 0 0 1 .035-2.391 9.665 9.665 0 0 1 .738-2.145 13.689 13.689 0 0 1 1.2-2q.7-.984 1.336-1.969.492-.07.6.141t.457-.07a4.033 4.033 0 0 0 1.266-1.477 4.2 4.2 0 0 0 .352-1.758 28.349 28.349 0 0 1 1.2-2.988 20.849 20.849 0 0 1 1.539-2.785 13.591 13.591 0 0 1 1.863-2.25 7.335 7.335 0 0 1 2.145-1.477 9.869 9.869 0 0 1 2.109-1.3 12.563 12.563 0 0 1 2.742-.914 16.007 16.007 0 0 1 2.988-.352 9.52 9.52 0 0 1 2.777.316q.352.141.387-.141t.247-.276zm-2.884 16.805a20.8 20.8 0 0 1 3.762-1.23 7.012 7.012 0 0 0 3.34-1.723 7.473 7.473 0 0 0 -2.461-1.371 12.83 12.83 0 0 0 -3.516-.738 12.544 12.544 0 0 0 -3.832.316 7.471 7.471 0 0 0 -3.34 1.723q-.422 1.266-.7 2t-.773 1.793a1.013 1.013 0 0 0 .457.527 1.013 1.013 0 0 1 .457.527 8.147 8.147 0 0 1 3.27-.949 9.433 9.433 0 0 0 3.336-.875zm55.125 5.7a4.637 4.637 0 0 0 .141 1.617 11.544 11.544 0 0 0 .527 1.512q.316.738.6 1.512a9.49 9.49 0 0 1 .422 1.547 8.2 8.2 0 0 1 0 2.145 12.024 12.024 0 0 1 -.492 2.25 8.439 8.439 0 0 1 -.914 1.969 3.715 3.715 0 0 1 -1.336 1.3 6.915 6.915 0 0 1 -2.391 1.969 13.751 13.751 0 0 0 -2.6 1.688 5.336 5.336 0 0 1 -1.723.7q-.949.211-1.934.422-.773.422-1.828.879t-2.18.844a13.166 13.166 0 0 1 -2.25.563 8.407 8.407 0 0 1 -1.967.102 18.5 18.5 0 0 1 -4.113 1.02 14.429 14.429 0 0 1 -4.676-.316 11.872 11.872 0 0 1 -4.676-.211 10.925 10.925 0 0 1 -3.8-1.793 13.269 13.269 0 0 1 -2.883-2.953 17.717 17.717 0 0 1 -2-3.621 18.636 18.636 0 0 1 .281-7.277 24.543 24.543 0 0 1 2.426-6.047 32.07 32.07 0 0 1 3.617-5.132q2.039-2.355 3.938-4.605a.72.72 0 0 0 .668-.035 1.866 1.866 0 0 0 .457-.492 5.749 5.749 0 0 1 .457-.6 1.051 1.051 0 0 1 .6-.352 3.39 3.39 0 0 1 1.441-1.582 3.9 3.9 0 0 0 1.512-1.512 3.1 3.1 0 0 0 1.051-.422 6.852 6.852 0 0 0 .809-.633q.387-.352.809-.668a2.719 2.719 0 0 1 .984-.457v-.773a4.924 4.924 0 0 0 1.863-1.3q.6-.738 1.441-1.793a9.673 9.673 0 0 1 1.02-.07 7.134 7.134 0 0 0 1.16-.141 8.232 8.232 0 0 1 1.02-1.477 6.648 6.648 0 0 1 1.371-1.055 5.955 5.955 0 0 0 1.863.563 3.081 3.081 0 0 1 1.793.914 1.849 1.849 0 0 0 .422 1.09 5.513 5.513 0 0 0 .773.7q.422.316.809.668a1.821 1.821 0 0 1 .527.984q.281.07.387-.07t.387-.07a3.093 3.093 0 0 0 .492 1.3 3.568 3.568 0 0 1 .563 1.23 6.67 6.67 0 0 0 -.527 1.441 1.582 1.582 0 0 1 -.879 1.09q-.07.492.281.527a.44.44 0 0 1 .422.387 1.078 1.078 0 0 1 -.211.914 46.768 46.768 0 0 1 3.023 5.8 46.768 46.768 0 0 0 3.024 5.805zm-8.789 6.68a3.683 3.683 0 0 1 .738-1.266 2.362 2.362 0 0 0 .527-1.477 3.151 3.151 0 0 1 -.422-.879 5.223 5.223 0 0 1 -.07-1.02 27.776 27.776 0 0 1 -2.672-4.676 35.562 35.562 0 0 0 -2.531-4.676 1.765 1.765 0 0 1 -.492.563q-.352.281-.773-.141a1.334 1.334 0 0 1 -.492.809 1.145 1.145 0 0 1 -.773.211 3.19 3.19 0 0 1 -.879-.211 3.018 3.018 0 0 1 -.809-.457q-2.039 1.617-4.078 3.164a20.355 20.355 0 0 0 -3.656 3.586q-.281.141-.352.105t-.422.105a11.616 11.616 0 0 1 -1.371 2.426q-.809 1.09-1.582 2.215a14.869 14.869 0 0 0 -1.336 2.391 8.057 8.057 0 0 0 -.633 2.953 5.434 5.434 0 0 0 2.813 1.2 15.816 15.816 0 0 0 3.34.07 31.606 31.606 0 0 0 3.375-.457 16.339 16.339 0 0 1 3.059-.316 20.22 20.22 0 0 0 5.063-1.863q2.108-1.169 4.429-2.364zm47.742-4.57q-.07.352-.141.6t-.141.457a1.689 1.689 0 0 0 -.07.527v.809a21.185 21.185 0 0 1 -5.309 6.258 41.209 41.209 0 0 1 -7.031 4.465 84.682 84.682 0 0 1 -7.98 3.516q-4.148 1.582-8.086 3.41a4.94 4.94 0 0 1 -2.566-1.406 6.752 6.752 0 0 1 -1.336-2.285 13.026 13.026 0 0 1 -.633-2.883q-.176-1.582-.316-3.27a3.926 3.926 0 0 1 .6-1.3 2.527 2.527 0 0 0 .387-1.512q.563-1.828 1.125-3.586a15.671 15.671 0 0 0 .7-3.586 1.265 1.265 0 0 1 .773-.773 35.234 35.234 0 0 0 .035-6.855 36.457 36.457 0 0 0 -1.16-6.5 5.171 5.171 0 0 1 .176-1.02q.105-.316-.035-.457-.07-.562.387-.562h.949a6.091 6.091 0 0 0 -.387-2.109q-.387-1.055-.738-2.391a7.247 7.247 0 0 0 .633-2.074 4.42 4.42 0 0 1 .633-1.793 53.429 53.429 0 0 1 7.277 2.883 32.244 32.244 0 0 0 6.855 2.461q2.531 1.828 5.2 3.621a33.543 33.543 0 0 1 4.852 3.938 20.336 20.336 0 0 1 3.656 4.887 15.46 15.46 0 0 1 1.692 6.525zm-16.664 3.867q1.477-.562 2.918-1.2a18.109 18.109 0 0 0 2.672-1.441 12.123 12.123 0 0 0 2.215-1.863 8.678 8.678 0 0 0 1.617-2.531 5.412 5.412 0 0 0 -1.125-1.512q-.7-.668-1.406-1.266t-1.371-1.23a4.972 4.972 0 0 1 -1.09-1.547 4.864 4.864 0 0 1 -1.617-.527q-.7-.387-1.371-.773t-1.406-.738a4.772 4.772 0 0 0 -1.723-.422 16.433 16.433 0 0 0 -2.777-1.125 4.762 4.762 0 0 1 -1.863-.914 1.263 1.263 0 0 0 -.773.211 47.239 47.239 0 0 1 1.055 5.027 35.465 35.465 0 0 1 .387 4.711 37.472 37.472 0 0 1 -.246 4.816q-.281 2.461-.773 5.344a4.6 4.6 0 0 0 1.3-.316q.6-.246 1.2-.527t1.266-.527a5.9 5.9 0 0 1 1.582-.316 1.92 1.92 0 0 1 .6-.7 6.208 6.208 0 0 0 .73-.639zm32.7 10.2a5.456 5.456 0 0 1 -.246 3.3 4.041 4.041 0 0 1 -1.687 1.793 5.715 5.715 0 0 1 -2.5.668 12.447 12.447 0 0 1 -2.672-.141 10.93 10.93 0 0 1 -1.266-2.461q-.562-1.477-1.055-3.059t-.879-3.129q-.387-1.547-.668-2.742a6.689 6.689 0 0 0 .457-1.934q.105-1.09.141-2.215t.07-2.285a21.754 21.754 0 0 1 .176-2.215 32.951 32.951 0 0 1 1.441-5.625 38.717 38.717 0 0 0 1.512-5.555 1.888 1.888 0 0 0 -.105-1.2 1.53 1.53 0 0 1 -.105-1.055.55.55 0 0 1 .422-.387.564.564 0 0 0 .422-.457 2.76 2.76 0 0 0 .105-1.266 1.863 1.863 0 0 1 .246-1.2 18.549 18.549 0 0 0 .879-1.652 4.056 4.056 0 0 0 .387-2.285 7.841 7.841 0 0 0 1.2-.984 11.654 11.654 0 0 1 1.16-1.02 7.5 7.5 0 0 1 1.336-.809 4.146 4.146 0 0 1 1.793-.352 3.637 3.637 0 0 1 .738 1.547l.352 1.688a6.972 6.972 0 0 0 .527 1.582 2.5 2.5 0 0 0 1.2 1.16v1.406q0 .844.07 1.652a5.682 5.682 0 0 0 .316 1.477 1.38 1.38 0 0 0 .809.879q-1.266 3.375-2.355 6.68a61.957 61.957 0 0 0 -1.793 6.645 43.541 43.541 0 0 0 -.879 6.715 29.225 29.225 0 0 0 .447 6.826zm49.641-35.086a12.974 12.974 0 0 0 .492 2.672q.352 1.125.773 2.18.352.984.668 1.934a10.912 10.912 0 0 1 .457 2.285 24.836 24.836 0 0 0 -.809 3.375q-.246 1.547-.527 3.234-1.125 2.461-2.18 4.359t-1.687 3.3a3.445 3.445 0 0 0 -.6.809q-.246.457-.527.949a6.254 6.254 0 0 0 -.352.633 2.366 2.366 0 0 1 -.352.563l-1.411-.495-.281 1.758-.984.281-.7.844a21.206 21.206 0 0 1 -2.812 3.9 18.465 18.465 0 0 1 -3.34 2.813 29.6 29.6 0 0 1 -4.219 2.285q-2.355 1.055-5.309 2.32-1.2-.141-2.074-.176t-1.652-.105a31.93 31.93 0 0 1 -3.3-.211 1.336 1.336 0 0 0 -.633-.773 1.75 1.75 0 0 0 -.773-.211 3.847 3.847 0 0 1 -1.793-1.652q-.6-1.09-1.16-2.355-.352-.773-.7-1.441t-.773-1.371l1.2-.352-1.547-1.687a1.813 1.813 0 0 0 -.352-.387 1.813 1.813 0 0 1 -.352-.387l-.07-1.125q-.211-4.852-.176-8.895a23.4 23.4 0 0 1 1.09-7.207v-.773q.211-1.547.422-2.566t.352-1.934a17.353 17.353 0 0 1 .633-2.883 2.521 2.521 0 0 0 1.477-.809q.492-.6.844-1.09a1.723 1.723 0 0 1 1.336.281 3.893 3.893 0 0 1 .7 1.125q.352.633.879 1.406a3.351 3.351 0 0 0 1.582 1.2 8.412 8.412 0 0 0 .387 1.16q.246.6.527 1.3a26.447 26.447 0 0 1 1.02 2.5 9.16 9.16 0 0 1 .527 2.5 12.3 12.3 0 0 0 -1.09 3.094 22.706 22.706 0 0 0 -.492 3.551 20.93 20.93 0 0 0 .07 3.445 11.448 11.448 0 0 0 .6 2.777l.422.914 1.2-.141a37.005 37.005 0 0 0 3.814-1.243 19.355 19.355 0 0 0 3.2-1.582 18.606 18.606 0 0 0 2.813-2.145q1.336-1.23 2.813-2.848a17.54 17.54 0 0 0 2.566-3.691 28.143 28.143 0 0 0 1.828-4.324 31.934 31.934 0 0 0 1.125-4.465 41.646 41.646 0 0 0 .527-4.184 1.644 1.644 0 0 0 1.2-1.687l-.141-.773a.928.928 0 0 1 0-.984 3.363 3.363 0 0 1 1.969-2.039 12.271 12.271 0 0 1 2 1.547q.877.843 1.651 1.687zm49.285 38.732q-.7.352-1.3.633a3.185 3.185 0 0 1 -1.371.281q-2.742-2.039-2.848-7.1a45.037 45.037 0 0 1 2.145-12.867.9.9 0 0 0 .352-.844l-.633-.7a1.912 1.912 0 0 0 -.527.07q-.246.07-.387.492-1.828 1.336-4.008 2.777a51.158 51.158 0 0 1 -4.535 2.672 30 30 0 0 1 -4.781 2 15.575 15.575 0 0 1 -4.746.773q-5.906 0-8.859-5.977l-.562-1.055-.562.914a8.175 8.175 0 0 0 -.633 1.16q-.422.879-.844 2t-.741 2.291a5.9 5.9 0 0 0 -.246 2q-.633.633-1.336 1.477a5.806 5.806 0 0 0 -1.055 1.9 1.378 1.378 0 0 0 .141 1.055 1.584 1.584 0 0 1 -.633.984 8.1 8.1 0 0 1 -.6.668 3.475 3.475 0 0 0 -.527.668 2.579 2.579 0 0 0 -.176.7q-.035.352-.105.7a2.874 2.874 0 0 1 -.141.914 14.42 14.42 0 0 1 -1.9 3.2 2.5 2.5 0 0 1 -1.9.738 12.642 12.642 0 0 1 -1.828-.211 9.406 9.406 0 0 1 -1.652-2.707 18.294 18.294 0 0 1 -1.125-3.691 18.839 18.839 0 0 1 -.352-3.973 9.206 9.206 0 0 1 .668-3.48q0-.07.563-1.406t1.441-3.445q.879-2.109 2-4.676t2.25-4.992q1.125-2.426 2.145-4.465a30.36 30.36 0 0 1 1.723-3.094q.563-.844 1.02-1.582t.879-1.441a29.248 29.248 0 0 1 2.426-3.621 7.74 7.74 0 0 1 3.42-2.274 5.679 5.679 0 0 1 2.25 1.477l.141.773q.281.7.844.7.773.211 1.3.387a11.715 11.715 0 0 0 1.16.316 7.405 7.405 0 0 1 .914 1.336q.563.844 1.09 1.652a8.913 8.913 0 0 1 .844 1.617 5.088 5.088 0 0 1 .352 1.652 4.372 4.372 0 0 1 -.316 1.758l.07.7a2.628 2.628 0 0 1 .141 1.758 7.2 7.2 0 0 0 -.07 1.02 5.382 5.382 0 0 0 .141 1.16 3.856 3.856 0 0 0 2.25.984 4.2 4.2 0 0 0 2.074-.527q.949-.527 1.793-1.09a10.274 10.274 0 0 1 1.125-.738 3.066 3.066 0 0 1 1.125-.387q1.266-1.2 2.285-2.109t2.145-1.828a49.493 49.493 0 0 0 4.078-3.656 14.6 14.6 0 0 0 3.164-4.921 2.827 2.827 0 0 1 1.477-.422 4.2 4.2 0 0 1 1.617.352q.844.352 1.617.7a2.155 2.155 0 0 0 .387.211q.176.07.316.141a1.532 1.532 0 0 0 .563 1.2 4.255 4.255 0 0 1 .352.281.818.818 0 0 0 .211.141 3.039 3.039 0 0 1 1.336 1.125 4.37 4.37 0 0 0 1.758 2.461 2.689 2.689 0 0 0 .035 1.3 9.948 9.948 0 0 0 .457 1.23l.141.422a3.858 3.858 0 0 0 .211.492l-1.336-.141.211 1.336a5.489 5.489 0 0 1 -.176 2.18 7.453 7.453 0 0 1 -.738 1.9q.07 1.828.105 2.848a9.872 9.872 0 0 1 -.105 1.9 11.372 11.372 0 0 1 -.387 1.652 14.717 14.717 0 0 1 -.668 1.688 20.585 20.585 0 0 1 -1.02 8.191q-1.3 3.691-2.707 6.926-.141.352-.316.7t-.316.7a8.614 8.614 0 0 0 -1.125.457z" fill="#404040" transform="translate(-18.004 -6.484)"/><path d="m11.439 22.011c-6.151-4.395-9.377-8.393-10.699-11.739-3.54-8.972 6.578-13.256 10.699-7.962 4.12-5.294 14.243-1.005 10.7 7.962-1.324 3.346-4.55 7.344-10.7 11.739z" fill="#80ffdb" transform="matrix(.951 .309 -.309 .951 130.779 0)"/></svg>