<?xml version="1.0" standalone="no"?>
<!DOCTYPE svg PUBLIC "-//W3C//DTD SVG 20010904//EN"
 "http://www.w3.org/TR/2001/REC-SVG-20010904/DTD/svg10.dtd">
<svg version="1.0" xmlns="http://www.w3.org/2000/svg"
 width="1280.000000pt" height="1280.000000pt" viewBox="0 0 1280.000000 1280.000000"
 preserveAspectRatio="xMidYMid meet">
<metadata>
Created by potrace 1.11, written by Peter Selinger 2001-2013
</metadata>
<g transform="translate(0.000000,1280.000000) scale(0.100000,-0.100000)"
fill="#000000" stroke="none">
<path d="M4352 10883 c-23 -8 -62 -35 -87 -59 -83 -83 -75 366 -75 -4429 0
-4656 -4 -4332 55 -4409 16 -21 49 -49 74 -64 l46 -27 2128 -3 2127 -2 0 4393
c0 4779 4 4446 -54 4522 -15 19 -48 47 -74 62 l-47 28 -2025 2 c-1784 1 -2030
0 -2068 -14z m1663 -709 c74 -20 189 -72 248 -113 25 -17 73 -58 106 -92 l62
-61 83 80 c67 64 103 90 178 126 156 75 307 100 466 77 292 -43 530 -212 652
-466 65 -135 85 -226 85 -390 -1 -207 -40 -355 -155 -590 -202 -413 -601 -846
-1177 -1276 l-133 -100 -142 107 c-777 584 -1220 1155 -1313 1693 -51 288 31
571 220 766 134 139 296 220 515 259 50 9 246 -4 305 -20z"/>
<path d="M9075 7931 c-22 -10 -56 -33 -74 -52 -19 -18 -42 -52 -52 -74 -18
-38 -19 -151 -19 -2885 0 -2752 1 -2846 19 -2885 10 -22 36 -57 57 -77 77 -73
-66 -68 1857 -68 1329 0 1739 3 1771 12 55 16 138 99 154 154 9 32 12 677 12
2866 0 3179 8 2880 -79 2961 -27 25 -66 50 -87 56 -27 8 -565 11 -1779 11
-1664 0 -1742 -1 -1780 -19z"/>
<path d="M195 5951 c-76 -19 -137 -65 -169 -128 -15 -29 -16 -199 -16 -1898 0
-1814 1 -1867 19 -1903 25 -49 56 -76 116 -104 l50 -23 1750 0 1750 0 50 23
c63 29 93 57 116 107 18 38 19 113 19 1898 0 1654 -2 1862 -15 1895 -21 50
-50 79 -110 110 l-50 27 -1740 2 c-957 0 -1753 -2 -1770 -6z"/>
</g>
</svg>
